<?xml version="1.0" encoding="utf-8"?>
<!-- Generator: Adobe Illustrator 24.3.0, SVG Export Plug-In . SVG Version: 6.00 Build 0)  -->
<svg version="1.1" id="Ebene_1" xmlns="http://www.w3.org/2000/svg" xmlns:xlink="http://www.w3.org/1999/xlink" x="0px" y="0px"
	 viewBox="0 0 1360.4 667.5" style="enable-background:new 0 0 1360.4 667.5;" xml:space="preserve">
<style type="text/css">
	.st0{fill:#FFFFFF;}
	.st1{fill:#0096D6;}
</style>
<g id="Ebene_2_1_">
	<g id="logo_withtype_Image">
		<path class="st0" d="M541.9,349.6l-99.1,1.7c0,0,69.8,131,237.4,131s237.5-132.7,237.5-132.7h-99.1c0,0-52.2,49.4-138.4,49.4
			S541.9,349.6,541.9,349.6z"/>
		<path class="st0" d="M489.4,289.2c0,0-32.9-48.7-28.5-119s42.2-119.6,42.2-119.6l-32.9-32.9c0,0-52.5,58.3-65.5,135.8
			S415.4,296,415.4,296L489.4,289.2z"/>
		<path class="st0" d="M870.7,289.2c0,0,32.9-48.7,28.5-119S857,50.6,857,50.6l32.9-32.9c0,0,52.5,58.3,65.5,135.8
			S944.8,296,944.8,296L870.7,289.2z"/>
		<polygon class="st1" points="0,335.1 565.8,325.8 680.2,64.3 680.2,0 513.4,286.1 		"/>
		<polygon class="st1" points="1360.4,335.1 794.7,325.8 680.3,64.3 680.2,0 847,286.1 		"/>
		<path class="st0" d="M187.8,642.3h-10.2v-91.8h10.2V642.3z"/>
		<path class="st0" d="M216.7,576.4v6.9c3.5-4.9,9.1-7.8,15.2-7.7c6.4-0.2,12.6,2.4,17.1,7c6.3,6.8,6.3,14.7,6.3,24.4v35.3h-9.6V607
			c0-8.5,0-14.3-4-18.3c-6-5.3-15-5.3-20.9,0c-4,4-4,9.8-4,18.3v35.3h-9.6v-65.9H216.7z"/>
		<path class="st0" d="M306.8,588.6c-5.2-2.5-10.8-3.8-16.5-3.9c-2.9-0.1-5.7,0.5-8.3,1.9c-2.5,1.4-4,4-4,6.9c0,2.7,1.3,5.2,3.4,6.8
			c2.8,2.2,5.6,2.9,10.6,4s9.5,2.3,13.4,5.1c5,3.4,8,9,8.1,15c0,5.7-2.8,11-7.4,14.3c-4.3,3-9.5,4.4-15.9,4.4
			c-7.7,0-15.2-1.6-22.2-4.8l3.9-8.3c5.7,2.6,12,4,18.3,4c4,0,7.4-0.7,10.1-2.6c2.2-1.6,3.6-4.2,3.6-7c0-2.9-1.5-5.7-3.9-7.4
			c-3-2.2-6.5-3-10.9-4s-9.4-2.2-13.5-5.4c-4.5-3.3-7.2-8.5-7.3-14.1c0-5.6,2.8-10.8,7.5-13.9c4-2.8,8.8-4,14.5-4
			c7,0,13.8,1.6,20.1,4.5L306.8,588.6z"/>
		<path class="st0" d="M372.8,583.7c6.2,7.4,6.2,16.5,6.2,25.6s0,18.2-6.2,25.6c-4,4.8-10.5,8.1-18.6,8.1
			c-6.6,0.1-12.7-3.1-16.5-8.4v32.8H328v-91.1h9.6v7.6c3.8-5.3,10-8.5,16.5-8.4C362.4,575.6,368.8,578.9,372.8,583.7z M341.8,589.5
			c-4.1,4.8-4.1,12.4-4.1,19.8s0,15,4.1,19.8c2.5,2.9,6.5,4.8,11.7,4.8s9.2-1.9,11.7-4.8c4.1-4.8,4.1-12.4,4.1-19.8s0-15-4.1-19.8
			c-2.5-2.9-6.5-4.8-11.7-4.8S344.3,586.6,341.8,589.5L341.8,589.5z"/>
		<path class="st0" d="M405.5,559.3c0,3.6-2.9,6.5-6.5,6.5c-3.6,0-6.5-2.9-6.5-6.5c0-3.6,2.9-6.5,6.5-6.5c0,0,0,0,0,0
			c3.4-0.1,6.3,2.5,6.5,6C405.5,559,405.5,559.2,405.5,559.3z M394.2,576.4h9.6v65.9h-9.6V576.4z"/>
		<path class="st0" d="M456.3,577l-2.5,8.8c-2.1-0.8-4.4-1.2-6.6-1.1c-5.2,0-9.2,1.9-11.7,4.8c-4.1,4.8-4.1,12.4-4.1,19.8v32.9h-9.6
			v-65.9h9.6v7.6c3.8-5.3,10-8.5,16.5-8.4C450.8,575.6,453.6,576.1,456.3,577z"/>
		<path class="st0" d="M507.4,583.7c5.8,6.9,6.3,15.2,6.3,25.6v2.8h-41.3c0,4,0,12.1,4.1,17c2.5,2.9,6.5,5,13.1,5
			c6.1,0,12.1-1.5,17.5-4.4l3.9,8.3c-6.6,3.5-13.9,5.3-21.4,5.2c-9.1,0-16-3-20.5-8.3c-6.3-7.3-6.3-17.2-6.3-25.5
			c0-8.8,0-18.2,6.3-25.6c4.1-4.8,10.9-8.1,19.2-8.1S503.3,578.9,507.4,583.7z M500.4,589.9c-2.9-3.7-7.6-5.2-12.1-5.2
			s-9.2,1.5-12.1,5.2s-3.7,8.7-3.7,13.6h31.7C504.1,598.6,503.3,593.7,500.4,589.9L500.4,589.9z"/>
		<path class="st1" d="M538.8,550.5l28.9,56.9l28.8-56.9h9.1v91.8h-10.2v-69.2l-23.3,46.4h-8.8l-23.3-46.2v68.9h-10.2v-91.8H538.8z"
			/>
		<path class="st1" d="M666.9,583.7c5.8,6.9,6.3,15.2,6.3,25.6v2.8h-41.3c0,4,0,12.1,4.1,17c2.5,2.9,6.5,5,13.1,5
			c6.1,0,12.1-1.5,17.5-4.4l3.8,8.3c-6.6,3.5-13.9,5.3-21.3,5.2c-9.1,0-16-3-20.5-8.3c-6.3-7.3-6.3-17.2-6.3-25.5
			c0-8.8,0-18.2,6.3-25.6c4.1-4.8,10.9-8.1,19.2-8.1S662.7,578.9,666.9,583.7z M659.9,589.9c-2.9-3.7-7.6-5.2-12.1-5.2
			s-9.2,1.5-12.1,5.2s-3.7,8.7-3.7,13.6h31.7C663.5,598.6,662.7,593.7,659.9,589.9L659.9,589.9z"/>
		<path class="st1" d="M726.3,584v-33.5h9.6v91.8h-9.6v-7.6c-3.8,5.3-10,8.5-16.5,8.4c-8.1,0-14.6-3.3-18.6-8.1
			c-6.2-7.4-6.2-16.5-6.2-25.6s0-18.2,6.2-25.6c4-4.8,10.5-8.1,18.6-8.1C716.3,575.5,722.4,578.7,726.3,584z M698.7,589.5
			c-4.1,4.8-4.1,12.4-4.1,19.8s0,15,4.1,19.8c2.5,2.9,6.5,4.8,11.7,4.8s9.2-1.9,11.7-4.8c4.1-4.8,4.1-12.4,4.1-19.8s0-15-4.1-19.8
			c-2.5-2.9-6.5-4.8-11.7-4.8S701.2,586.6,698.7,589.5L698.7,589.5z"/>
		<path class="st1" d="M765.1,559.3c0,3.6-2.9,6.5-6.5,6.5c-3.6,0-6.5-2.9-6.5-6.5c0-3.6,2.9-6.5,6.5-6.5c0,0,0,0,0,0
			c3.4-0.1,6.3,2.5,6.5,6C765.1,559,765.1,559.2,765.1,559.3z M753.8,576.4h9.6v65.9h-9.6V576.4z"/>
		<path class="st1" d="M820.4,582.9c5.5,6.2,5.5,14.3,5.5,20.3v39.1h-9.6v-7.9c-3.8,5.5-10.1,8.8-16.8,8.7
			c-5.2,0.1-10.2-1.6-14.3-4.7c-4.8-3.7-7.7-9.5-7.9-15.6c-0.1-6.3,3-12.3,8.1-16c6.5-4.7,14.2-4.7,19.6-4.7h11.3
			c0-4.3,0-9.8-3.3-13.5c-2.3-2.6-5.9-4-11.2-4c-6.2,0.1-12.3,1.3-18,3.6l-2.9-8.7c6.7-2.6,13.8-3.9,21-4
			C810,575.6,816.2,578.2,820.4,582.9z M791,631.1c2.6,1.9,5.8,2.9,9.1,2.9c5.9,0,10.6-2.8,13.1-6.5c3-4.5,3-9.8,3-16.8h-11.3
			c-4.7,0-9.5,0-13.5,2.9c-2.9,2-4.6,5.3-4.5,8.8C786.9,625.8,788.4,629,791,631.1z"/>
		<path class="st0" d="M932,558.9l-6.2,7.6c-4.7-4.7-11.2-7.3-17.9-7.2c-6.8,0-12.4,2.5-15.8,6.9c-5,6.3-5,14.3-5,30.2
			s0,23.7,4.8,30c3.3,4.3,8.7,7,16,7s12.7-2.8,16-7c4.1-5.4,4.7-12,4.8-23.7h-19v-9.6h29.2c0,20.5,0,30.2-6.8,39
			c-5,6.5-13.2,11-24.3,11s-19.3-4.5-24.3-11c-6.8-8.8-6.8-18.5-6.8-35.7c0-16.7,0-27,6.9-35.8c4.8-6.2,13.1-10.9,24.1-10.9
			C917.8,549.7,926.5,553.6,932,558.9z"/>
		<path class="st0" d="M1031.3,581.5c6.8,6.5,6.8,15.3,6.8,25.5v35.3h-9.7V607c0-9,0-13.5-2.6-17.4c-2.1-3-5.8-5-10.5-5
			s-8.4,1.9-10.5,5c-2.6,3.9-2.6,8.4-2.6,17.4v35.3h-9.6V607c0-9,0-13.5-2.6-17.4c-2.1-3-5.8-5-10.5-5s-8.4,1.9-10.5,5
			c-2.6,3.9-2.6,8.4-2.6,17.4v35.3h-9.7v-65.9h9.7v6.3c3.2-4.5,8.3-7.2,13.8-7.2c8.5,0,14.6,4.1,18,11c3.4-6.7,10.3-10.9,17.8-11
			C1021.7,575.5,1027.2,577.7,1031.3,581.5z"/>
		<path class="st0" d="M1099.4,583.7c6.2,7.4,6.2,16.5,6.2,25.6s0,18.2-6.2,25.6c-4,4.8-10.5,8.1-18.6,8.1
			c-6.6,0.1-12.7-3.1-16.5-8.4v7.6h-9.7v-91.8h9.7V584c3.8-5.3,10-8.5,16.5-8.4C1088.9,575.6,1095.4,578.9,1099.4,583.7z
			 M1068.4,589.5c-4.1,4.8-4.1,12.4-4.1,19.8s0,15,4.1,19.8c2.5,2.9,6.5,4.8,11.7,4.8s9.2-1.9,11.7-4.8c4.1-4.8,4.1-12.4,4.1-19.8
			s0-15-4.1-19.8c-2.5-2.9-6.5-4.8-11.7-4.8S1070.9,586.6,1068.4,589.5L1068.4,589.5z"/>
		<path class="st0" d="M1132.3,550.5v39.7h40.2v-39.7h10.2v91.8h-10.2v-42.4h-40.2v42.4h-10.2v-91.8H1132.3z"/>
	</g>
</g>
</svg>
