<?xml version="1.0" standalone="no"?>
<!DOCTYPE svg PUBLIC "-//W3C//DTD SVG 20010904//EN"
 "http://www.w3.org/TR/2001/REC-SVG-20010904/DTD/svg10.dtd">
<svg version="1.0" xmlns="http://www.w3.org/2000/svg"
 width="248.000000pt" height="313.000000pt" viewBox="0 0 248.000000 313.000000"
 preserveAspectRatio="xMidYMid meet">

<g transform="translate(0.000000,313.000000) scale(0.100000,-0.100000)"
fill="#000000" stroke="none">
<path d="M181 2932 l-73 -37 6 -165 c3 -91 13 -349 22 -575 l15 -410 75 -460
c41 -253 77 -472 80 -487 4 -18 77 -91 246 -244 209 -190 248 -230 300 -309
33 -49 62 -92 64 -94 9 -9 646 -3 653 6 117 176 120 180 360 397 132 120 242
225 245 234 3 10 16 91 30 182 14 91 46 289 71 440 l46 275 24 540 c13 297 24
569 25 605 l0 66 -79 39 -79 38 -328 -261 -329 -262 -315 1 -315 0 -325 259
c-179 142 -329 259 -335 259 -5 0 -43 -17 -84 -37z m332 -235 c131 -104 236
-192 233 -194 -6 -6 -547 126 -557 136 -4 3 -9 53 -10 111 l-4 104 40 22 c21
13 44 20 50 16 5 -3 117 -91 248 -195z m1793 150 c2 -7 1 -57 -3 -112 l-8 -99
-270 -68 c-148 -37 -277 -67 -285 -65 -8 1 98 91 234 199 l248 197 40 -20 c21
-11 41 -25 44 -32z m-1778 -363 c172 -43 311 -81 310 -85 -2 -4 -140 -137
-307 -295 -218 -206 -306 -283 -311 -273 -4 8 -13 151 -19 319 -15 390 -14
423 2 417 6 -2 153 -40 325 -83z m1762 19 c1 -144 -23 -668 -30 -677 -7 -7
-610 553 -618 573 -2 5 588 161 641 170 4 0 7 -29 7 -66z m-405 -426 c186
-176 323 -313 315 -315 -8 -1 -127 -11 -265 -22 l-250 -19 -222 227 -223 227
-222 -227 -223 -227 -250 19 c-137 11 -256 21 -264 22 -8 2 131 141 315 315
l329 313 315 0 315 0 330 -313z m-447 -200 l192 -192 -115 -179 c-63 -98 -115
-187 -115 -197 0 -9 51 -226 114 -481 l115 -463 -41 -63 c-22 -34 -46 -62 -52
-62 -6 0 -27 13 -46 29 l-34 28 27 36 c24 32 27 44 27 119 l0 83 -46 53 -46
52 -178 0 -178 0 -46 -52 -46 -53 0 -83 c0 -75 3 -87 25 -114 14 -16 25 -33
25 -38 0 -11 -63 -60 -77 -60 -6 0 -29 28 -51 62 l-41 63 115 460 c62 253 114
470 114 482 0 12 -52 102 -115 200 l-114 178 192 193 c105 105 194 192 197
192 3 0 92 -87 198 -193z m-1026 -192 l88 -7 107 -103 108 -104 96 -1 c109 0
102 4 167 -100 l40 -65 -102 -415 c-57 -228 -106 -414 -110 -413 -10 3 -30 44
-216 453 -82 179 -191 419 -244 535 -53 115 -96 215 -96 223 0 10 10 12 38 8
20 -3 76 -8 124 -11z m1818 1 c0 -7 -113 -260 -251 -562 -138 -302 -262 -574
-276 -604 -22 -48 -26 -52 -34 -35 -7 15 -175 685 -203 806 -2 8 21 52 50 97
l54 82 97 0 98 1 108 104 108 103 77 7 c42 3 88 7 102 9 57 7 70 5 70 -8z
m-1715 -744 c108 -238 196 -435 194 -437 -8 -7 -334 297 -341 318 -6 17 -44
252 -103 632 -7 45 25 -20 250 -513z m1700 511 c-3 -16 -25 -158 -50 -318 -25
-159 -48 -300 -53 -313 -6 -21 -332 -324 -340 -317 -2 2 89 206 202 453 267
584 251 551 241 495z m-860 -1178 l100 -65 -209 0 c-128 0 -206 4 -200 9 10
11 196 120 204 120 3 1 50 -28 105 -64z"/>
</g>
</svg>
